<svg width="22" height="19" viewBox="0 0 22 19" fill="none" xmlns="http://www.w3.org/2000/svg">
<path fill-rule="evenodd" clip-rule="evenodd" d="M13.5437 5.08584C13.5437 7.83976 11.2949 10.0467 8.4887 10.0467C5.68353 10.0467 3.4337 7.83976 3.4337 5.08584C3.4337 2.33193 5.68353 0.125 8.4887 0.125C11.2949 0.125 13.5437 2.33193 13.5437 5.08584ZM0.849243 15.6639C0.849243 13.1146 4.36842 12.4768 8.4887 12.4768C12.6314 12.4768 16.1282 13.1366 16.1282 15.6879C16.1282 18.2372 12.609 18.875 8.4887 18.875C4.34604 18.875 0.849243 18.2152 0.849243 15.6639ZM15.5822 5.17578C15.5822 6.57819 15.153 7.88678 14.4003 8.97377C14.322 9.08556 14.3911 9.23629 14.5274 9.26024C14.7166 9.29118 14.9109 9.31015 15.1092 9.31414C17.0824 9.36505 18.8532 8.11835 19.3424 6.24081C20.0676 3.45496 17.9398 0.953571 15.2292 0.953571C14.9353 0.953571 14.6536 0.983516 14.3789 1.03841C14.3413 1.0464 14.3006 1.06437 14.2803 1.09631C14.2538 1.13723 14.2732 1.19013 14.2996 1.22507C15.1143 2.346 15.5822 3.71048 15.5822 5.17578ZM18.8501 11.2732C20.1764 11.5278 21.0481 12.0458 21.4092 12.8014C21.7153 13.4203 21.7153 14.1389 21.4092 14.7578C20.8569 15.9276 19.0749 16.3039 18.3823 16.4008C18.2388 16.4207 18.1239 16.301 18.1392 16.1592C18.4931 12.9172 15.6788 11.38 14.9506 11.0267C14.92 11.0097 14.9129 10.9858 14.916 10.9698C14.918 10.9598 14.9312 10.9438 14.9546 10.9408C16.5301 10.9109 18.2246 11.1235 18.8501 11.2732Z" fill="white"/>
</svg>
