<svg width="22" height="21" viewBox="0 0 22 21" fill="none" xmlns="http://www.w3.org/2000/svg">
<path fill-rule="evenodd" clip-rule="evenodd" d="M3.48939 0.0833321H7.00282C8.46848 0.0833321 9.64309 1.28125 9.64309 2.75104V6.30208C9.64309 7.78125 8.46848 8.96875 7.00282 8.96875H3.48939C2.03412 8.96875 0.849121 7.78125 0.849121 6.30208V2.75104C0.849121 1.28125 2.03412 0.0833321 3.48939 0.0833321ZM3.48939 12.0309H7.00282C8.46848 12.0309 9.64309 13.2195 9.64309 14.6986V18.2497C9.64309 19.7184 8.46848 20.9164 7.00282 20.9164H3.48939C2.03412 20.9164 0.849121 19.7184 0.849121 18.2497V14.6986C0.849121 13.2195 2.03412 12.0309 3.48939 12.0309ZM18.9985 0.0833321H15.485C14.0194 0.0833321 12.8448 1.28125 12.8448 2.75104V6.30208C12.8448 7.78125 14.0194 8.96875 15.485 8.96875H18.9985C20.4537 8.96875 21.6387 7.78125 21.6387 6.30208V2.75104C21.6387 1.28125 20.4537 0.0833321 18.9985 0.0833321ZM15.485 12.0309H18.9985C20.4537 12.0309 21.6387 13.2195 21.6387 14.6986V18.2497C21.6387 19.7184 20.4537 20.9164 18.9985 20.9164H15.485C14.0194 20.9164 12.8448 19.7184 12.8448 18.2497V14.6986C12.8448 13.2195 14.0194 12.0309 15.485 12.0309Z" fill="white"/>
</svg>
