<svg width="21" height="21" viewBox="0 0 21 21" fill="none" xmlns="http://www.w3.org/2000/svg">
<path d="M7.51523 19.6386V16.4534C7.51523 15.6404 8.17918 14.9812 8.99821 14.9812H11.9921C12.3855 14.9812 12.7627 15.1363 13.0408 15.4124C13.3189 15.6885 13.4751 16.063 13.4751 16.4534V19.6386C13.4726 19.9766 13.6062 20.3016 13.8461 20.5415C14.086 20.7814 14.4124 20.9163 14.7529 20.9163H16.7955C17.7495 20.9188 18.6652 20.5443 19.3406 19.8755C20.0161 19.2067 20.3957 18.2986 20.3957 17.3516V8.27765C20.3956 7.51265 20.0541 6.78701 19.463 6.2962L12.5144 0.787038C11.3057 -0.178907 9.57391 -0.147719 8.40129 0.861111L1.61131 6.2962C0.992275 6.77254 0.622288 7.50034 0.604004 8.27765V17.3423C0.604004 19.3162 2.21586 20.9163 4.20418 20.9163H6.20014C6.90737 20.9163 7.48213 20.3499 7.48725 19.6478L7.51523 19.6386Z" fill="white"/>
</svg>
